{
	"asset":{
		"generator":"Khronos glTF Blender I/O v4.5.47",
		"version":"2.0"
	},
	"extensionsUsed":[
		"KHR_materials_specular",
		"KHR_materials_ior"
	],
	"scene":0,
	"scenes":[
		{
			"name":"Scene",
			"nodes":[
				0
			]
		}
	],
	"nodes":[
		{
			"mesh":0,
			"name":"duk003312-000-30000",
			"scale":[
				0.0007999999797903001,
				0.0007999999797903001,
				0.0007999999797903001
			]
		}
	],
	"materials":[
		{
			"doubleSided":true,
			"extensions":{
				"KHR_materials_specular":{
					"specularColorFactor":[
						2.0,
						2.0,
						2.0
					]
				},
				"KHR_materials_ior":{
					"ior":1
				}
			},
			"name":"defaultMat",
			"normalTexture":{
				"index":0,
				"scale":2
			},
			"pbrMetallicRoughness":{
				"baseColorTexture":{
					"index":1
				},
				"metallicFactor":0.5,
				"roughnessFactor":0.30000001192092896
			}
		}
	],
	"meshes":[
		{
			"name":"duk003312-000-30000",
			"primitives":[
				{
					"attributes":{
						"POSITION":0,
						"NORMAL":1,
						"TEXCOORD_0":2
					},
					"indices":3,
					"material":0
				}
			]
		}
	],
	"textures":[
		{
			"sampler":0,
			"source":0
		},
		{
			"sampler":0,
			"source":1
		}
	],
	"images":[
		{
			"mimeType":"image/jpeg",
			"name":"duk003312-000-30000_nor.jpg",
			"uri":"duk003312-000-30000_nor.jpg"
		},
		{
			"mimeType":"image/jpeg",
			"name":"duk003312-000-30000.jpg",
			"uri":"duk003312-000-30000.jpg"
		}
	],
	"accessors":[
		{
			"bufferView":0,
			"componentType":5126,
			"count":146417,
			"max":[
				178.6700897216797,
				912.6680297851562,
				270.44268798828125
			],
			"min":[
				-227.5966339111328,
				-0.2896830141544342,
				-203.5115203857422
			],
			"type":"VEC3"
		},
		{
			"bufferView":1,
			"componentType":5126,
			"count":146417,
			"type":"VEC3"
		},
		{
			"bufferView":2,
			"componentType":5126,
			"count":146417,
			"type":"VEC2"
		},
		{
			"bufferView":3,
			"componentType":5125,
			"count":800670,
			"type":"SCALAR"
		}
	],
	"bufferViews":[
		{
			"buffer":0,
			"byteLength":1757004,
			"byteOffset":0,
			"target":34962
		},
		{
			"buffer":0,
			"byteLength":1757004,
			"byteOffset":1757004,
			"target":34962
		},
		{
			"buffer":0,
			"byteLength":1171336,
			"byteOffset":3514008,
			"target":34962
		},
		{
			"buffer":0,
			"byteLength":3202680,
			"byteOffset":4685344,
			"target":34963
		}
	],
	"samplers":[
		{
			"magFilter":9729,
			"minFilter":9987
		}
	],
	"buffers":[
		{
			"byteLength":7888024,
			"uri":"model.bin"
		}
	]
}
